<svg xmlns="http://www.w3.org/2000/svg" viewBox="0 0 44.9 44.91"><g id="Layer_2" data-name="Layer 2"><g id="Layer_1-2" data-name="Layer 1"><path d="M22.45,0A22.46,22.46,0,1,0,44.9,22.46,22.46,22.46,0,0,0,22.45,0ZM17,31.83h-5.2V17H17ZM13.82,14.69A2.6,2.6,0,1,1,17,12.15,2.59,2.59,0,0,1,13.82,14.69ZM34,31.83H29.58V24.18c0-1.73-.19-3.53-2.56-3.53s-2.76,1.46-2.76,3.41v7.77H19.93V17h4.2v1.59C24.75,17.4,25.82,17,28.5,17c3.79,0,5.19,1.76,5.54,4.56C34.12,22.19,34,31.83,34,31.83Z" style="fill:#fff"/></g></g></svg>