<svg xmlns="http://www.w3.org/2000/svg" xmlns:xlink="http://www.w3.org/1999/xlink" viewBox="0 0 184.74 323.6"><defs><style>.cls-1,.cls-2{stroke:#111825;stroke-linecap:round;stroke-miterlimit:10;stroke-width:3px;}.cls-1{fill:url(#linear-gradient);}.cls-2{fill:url(#linear-gradient-2);}</style><linearGradient id="linear-gradient" x1="46.3" y1="29.9" x2="50.07" y2="268.95" gradientUnits="userSpaceOnUse"><stop offset="0" stop-color="#e73546"/><stop offset="1" stop-color="#7b101b"/></linearGradient><linearGradient id="linear-gradient-2" x1="136.64" y1="49.44" x2="142.29" y2="272.03" xlink:href="#linear-gradient"/></defs><g id="Layer_2" data-name="Layer 2"><g id="Layer_1-2" data-name="Layer 1"><path class="cls-1" d="M1.41.73S6.58,14.84,7.06,17.67s0,275.76,0,275.76S4.91,321.2,4.34,323.08c0,0,47-125.18,90.72-129.41V167.78l-37.65.47.47,10.83S41.41,189.9,40.94,192.73l.47-2.83.47-36.7L72,154.61l.94-27.36s-32-5.58-32-7.94-.94-32-.94-32l15.53,8.47,1.41,6.59s23.06,10.36,33.88,8l.47-22.12S36.23,63.78,1.41.73Z"/><path class="cls-2" d="M92.4,87.94s34.36,5.18,70.12-47.53l18.82-10.35,1.89,56S153.11,178.29,131,189.59l-.47,12.23,22.12-11.76.94-18.35h27.29l2.36,58.82s-5.65,10.35-49.89,14.59c0,0-31.06,6.12-37.17,8.47l3.17-66.83s52.83-60.7,50.47-73.41l.47-22.11-23,14.11v13.18s-22.36,9.41-27.89,6.59C99.34,125.12,97.58,90.76,92.4,87.94Z"/></g></g></svg>