<svg xmlns="http://www.w3.org/2000/svg" xmlns:xlink="http://www.w3.org/1999/xlink" width="1200" height="700" viewBox="0 0 1200 700">
  <defs>
    <clipPath id="clip-Artboard_2">
      <rect width="1200" height="700"/>
    </clipPath>
  </defs>
  <g id="Artboard_2" data-name="Artboard – 2" clip-path="url(#clip-Artboard_2)">
    <rect width="1200" height="700" fill="#fff"/>
    <g id="Component_5_4" data-name="Component 5 – 4" transform="translate(1304.786 -71.408) rotate(31)">
      <path id="Path_2" data-name="Path 2" d="M986.645,397h310.014s100.959,107.332,100.959,214.664S1296.659,719,1296.659,826.328s100.959,107.332,100.959,214.664-100.959,107.332-100.959,214.664,100.959,107.332,100.959,214.664-99.2,111.077-100.959,214.664,93.914,199.685,93.914,199.685H986.645s-93.914-99.843-93.914-199.685,97.437-92.353,93.914-199.685-106.243-118.566-108-229.643S979.6,1148.324,979.6,1040.992,878.641,933.66,878.641,826.328,979.6,719,979.6,611.664,878.641,397,878.641,397Z" transform="translate(-878.618 -397)" fill="#75e3d3"/>
    </g>
    <g id="Component_5_3" data-name="Component 5 – 3" transform="translate(967.786 -282.408) rotate(31)">
      <path id="Path_2-2" data-name="Path 2" d="M986.645,397h310.014s100.959,107.332,100.959,214.664S1296.659,719,1296.659,826.328s100.959,107.332,100.959,214.664-100.959,107.332-100.959,214.664,100.959,107.332,100.959,214.664-99.2,111.077-100.959,214.664,93.914,199.685,93.914,199.685H986.645s-93.914-99.843-93.914-199.685,97.437-92.353,93.914-199.685-106.243-118.566-108-229.643S979.6,1148.324,979.6,1040.992,878.641,933.66,878.641,826.328,979.6,719,979.6,611.664,878.641,397,878.641,397Z" transform="translate(-878.618 -397)" fill="#4be0c9"/>
    </g>
    <g id="Component_5_2" data-name="Component 5 – 2" transform="translate(626.786 -485.408) rotate(31)">
      <path id="Path_2-3" data-name="Path 2" d="M986.645,397h310.014s100.959,107.332,100.959,214.664S1296.659,719,1296.659,826.328s100.959,107.332,100.959,214.664-100.959,107.332-100.959,214.664,100.959,107.332,100.959,214.664-99.2,111.077-100.959,214.664,93.914,199.685,93.914,199.685H986.645s-93.914-99.843-93.914-199.685,97.437-92.353,93.914-199.685-106.243-118.566-108-229.643S979.6,1148.324,979.6,1040.992,878.641,933.66,878.641,826.328,979.6,719,979.6,611.664,878.641,397,878.641,397Z" transform="translate(-878.618 -397)" fill="#29c9b1"/>
    </g>
    <g id="Component_5_1" data-name="Component 5 – 1" transform="translate(288.786 -685.408) rotate(31)">
      <path id="Path_2-4" data-name="Path 2" d="M986.645,397h310.014s100.959,107.332,100.959,214.664S1296.659,719,1296.659,826.328s100.959,107.332,100.959,214.664-100.959,107.332-100.959,214.664,100.959,107.332,100.959,214.664-99.2,111.077-100.959,214.664,93.914,199.685,93.914,199.685H986.645s-93.914-99.843-93.914-199.685,97.437-92.353,93.914-199.685-106.243-118.566-108-229.643S979.6,1148.324,979.6,1040.992,878.641,933.66,878.641,826.328,979.6,719,979.6,611.664,878.641,397,878.641,397Z" transform="translate(-878.618 -397)" fill="#17b59d"/>
    </g>
  </g>
</svg>
